<svg width="24" height="24" viewBox="0 0 24 24" fill="none" xmlns="http://www.w3.org/2000/svg">
<g clip-path="url(#clip0_2100_695)">
<path fill-rule="evenodd" clip-rule="evenodd" d="M16.5616 0.899994H16.1201L16.1204 0.901019H15.5524H15.0709C15.0377 0.93932 14.9947 0.940422 14.9518 0.941522C14.9372 0.941895 14.9227 0.942267 14.9086 0.944082L14.5998 1.184C14.5334 1.28619 14.467 1.38804 14.4002 1.49023L14.389 1.93146C14.4466 2.16044 14.5846 2.32928 14.7632 2.4776C14.8292 2.53246 14.9043 2.55418 14.9791 2.57579C15.0217 2.5881 15.0642 2.60039 15.1048 2.61875H15.5521H16.1207C16.2678 2.61875 16.4152 2.61875 16.5623 2.61841H17.1025H17.6118H18.1181C18.2879 2.61875 18.4577 2.61875 18.6275 2.61875H19.1677H19.6096H20.1837C20.3494 2.59517 20.5049 2.64268 20.6598 2.69155C20.7936 2.74623 20.9048 2.83031 20.9851 2.95301C21.1108 3.088 21.1437 3.25274 21.1356 3.43046C21.1784 3.5578 21.1715 3.68725 21.1645 3.81671C21.161 3.88183 21.1575 3.94695 21.1603 4.01181V4.45713C21.1607 4.63896 21.1607 4.82044 21.1607 5.00192C21.1603 5.16186 21.1603 5.32147 21.1603 5.48142V6.06003V6.53954V7.08398L21.1603 7.08766C21.1607 7.24637 21.161 7.40476 21.161 7.56348C21.1454 7.84988 21.1949 8.10382 21.4023 8.33144C21.7208 8.68107 22.3017 8.6674 22.5901 8.33246C22.6095 8.30981 22.6332 8.29115 22.657 8.27245C22.668 8.26377 22.6791 8.25509 22.6897 8.24599C22.7233 8.17723 22.7571 8.10866 22.7909 8.03999C22.8021 8.01719 22.8134 7.99438 22.8246 7.97155C22.8545 7.88709 22.8549 7.80001 22.8553 7.71285C22.8555 7.66281 22.8557 7.61275 22.8615 7.56314V7.05014V6.5392C22.8609 6.36831 22.8609 6.19708 22.8609 6.0262V5.51491V5.00192V4.49063C22.861 4.44503 22.8611 4.39943 22.8613 4.35384C22.8616 4.26238 22.8619 4.17093 22.8619 4.07948C22.8615 3.86382 22.8615 3.64816 22.8615 3.43251C22.8543 3.36324 22.8472 3.29405 22.8401 3.2249C22.8321 3.14733 22.8242 3.06982 22.8161 2.99231C22.6877 2.46598 22.4583 1.99708 22.0679 1.61361C22.0357 1.58199 21.9985 1.55666 21.9614 1.53141C21.9018 1.49088 21.8425 1.45053 21.8049 1.38462C21.7622 1.35421 21.7191 1.32379 21.6761 1.29337C21.5905 1.25253 21.505 1.2116 21.4194 1.17068C21.3338 1.12975 21.2483 1.08882 21.1627 1.04798C21.1145 1.03593 21.0663 1.02395 21.0182 1.01198C20.9544 0.996094 20.8906 0.980226 20.8269 0.964247L20.5907 0.933487C20.507 0.905652 20.4212 0.905719 20.3355 0.905786C20.2844 0.905826 20.2333 0.905866 20.1826 0.899994H19.6086H19.167H18.6268C18.457 0.900336 18.2872 0.900336 18.1175 0.900336H17.6112C17.4414 0.900336 17.2716 0.900336 17.1018 0.899994H16.5616ZM5.42316 0.900687H5.92946C6.09924 0.900687 6.26902 0.900687 6.4388 0.900345H6.97899H7.42056C7.47509 0.907922 7.52941 0.911523 7.58385 0.915131C7.68165 0.921614 7.77985 0.928123 7.88042 0.957762C8.44941 1.12625 8.69849 1.94992 8.17254 2.38465C8.15255 2.40111 8.13723 2.42322 8.12183 2.44545C8.11452 2.456 8.1072 2.46658 8.09934 2.47659C8.07678 2.48698 8.05318 2.49509 8.02958 2.50321C7.97945 2.52045 7.92933 2.53769 7.88923 2.57673L7.6571 2.59757L7.42496 2.61842H6.97865H6.43846H6.43829C6.26856 2.61842 6.09884 2.61842 5.92912 2.61808H5.42282H4.91348H4.91329C4.7334 2.61808 4.55318 2.61808 4.37329 2.61842H3.93172C3.80426 2.61842 3.67664 2.61873 3.54908 2.61903L3.35799 2.61945C2.87508 2.66798 2.53754 3.02205 2.55008 3.46704V4.01182V4.45714C2.55008 4.63862 2.55008 4.8201 2.54974 5.00192C2.54974 5.16187 2.54974 5.32148 2.55008 5.48143V6.06004V6.53955V7.08433V7.52965C2.54475 7.57892 2.54494 7.62896 2.54512 7.679V7.67901C2.54554 7.7911 2.54596 7.90317 2.48434 8.00642C2.48502 8.02522 2.4857 8.04402 2.48671 8.06282L2.48603 8.07614C2.45655 8.10007 2.43791 8.1298 2.44062 8.16979C2.40016 8.2053 2.3619 8.24305 2.32368 8.28077C2.21879 8.38427 2.11419 8.48749 1.96517 8.54334C1.62764 8.67014 1.23012 8.53924 1.01154 8.246C0.853486 8.03415 0.850251 7.80499 0.846877 7.56596L0.846842 7.56349C0.846842 7.40391 0.846505 7.24468 0.846166 7.0851V7.08509L0.846164 7.08399V6.53921V6.0597V5.48109C0.846164 5.32114 0.846164 5.16153 0.846503 5.00158C0.846503 4.8201 0.846503 4.63828 0.846164 4.4568V4.01148C0.846164 3.81872 0.846164 3.62562 0.845825 3.43286L0.849553 3.27923L0.853281 3.12561C0.896296 3.08025 0.891541 3.02802 0.886782 2.97574C0.884118 2.94648 0.881453 2.9172 0.887169 2.8891C0.965176 2.75245 0.995477 2.60032 1.02574 2.4484L1.02645 2.4448L1.14381 2.24771L1.14392 2.24752C1.20657 2.14236 1.26924 2.03715 1.33179 1.93181C1.34144 1.92144 1.35081 1.91107 1.36042 1.90044L1.36297 1.89763C1.48306 1.74152 1.62732 1.61001 1.77157 1.47853C1.80456 1.44846 1.83754 1.41839 1.87024 1.38803L2.37386 1.10438L2.85101 0.941015L2.91693 0.938281L2.98284 0.935547L3.11959 0.918287L3.25632 0.901028L3.27191 0.904446L3.2875 0.900345H3.35765H3.93172H4.37329C4.55324 0.900345 4.73353 0.900345 4.91348 0.900687H5.42282H5.42316ZM1.87024 1.38803L1.8696 1.38839L1.87096 1.38737L1.87024 1.38803ZM0.348036 12.7129C0.176899 12.555 0.0660828 12.3599 0 12.1374L0.00356464 12.0994C0.0172854 11.9532 0.0309832 11.8072 0.0443941 11.661L0.0832589 11.6075L0.0832627 11.6075C0.14306 11.5249 0.202643 11.4426 0.274837 11.3684C0.444957 11.1934 0.656422 11.148 0.884832 11.1405H1.05665H1.25625C1.2793 11.1405 1.30236 11.1408 1.32574 11.1411L1.32674 11.1411H1.86692C1.92775 11.1411 1.98858 11.1408 2.04941 11.1405L2.1404 11.1401H3.22043H3.2916C3.49392 11.1401 3.69623 11.1401 3.89855 11.1405H4.40789C4.5875 11.1405 4.76711 11.1401 4.94706 11.1398L4.94808 11.1398H5.11989H5.31949C5.34288 11.1398 5.3666 11.1401 5.38998 11.1405H5.93017C5.99091 11.1405 6.05166 11.1402 6.1124 11.1398L6.20365 11.1394H7.28368H7.35484C7.55716 11.1394 7.75947 11.1398 7.96179 11.1401H8.47114C8.65075 11.1401 8.83036 11.1398 9.01031 11.1394L9.01132 11.1394H9.18314H9.38274C9.40612 11.1394 9.42951 11.1398 9.45323 11.1401H9.99341C10.0542 11.1401 10.1149 11.1398 10.1756 11.1395L10.2669 11.1391H11.3469H11.4181C11.6204 11.1391 11.8227 11.1391 12.025 11.1394H12.5344C12.714 11.1394 12.8936 11.1391 13.0736 11.1387L13.0746 11.1387H13.2464H13.446C13.469 11.1387 13.4921 11.1391 13.5155 11.1394L13.5165 11.1394H14.0567C14.1174 11.1394 14.1781 11.1391 14.2389 11.1388L14.3301 11.1384H15.4102H15.4813C15.6836 11.1384 15.886 11.1387 16.0883 11.1391H16.5976C16.7772 11.1391 16.9568 11.1387 17.1368 11.1384L17.1378 11.1384H17.3096H17.5092L17.5797 11.1391H18.1199C18.2111 11.1391 18.3022 11.1391 18.3934 11.1384H19.4731H19.5442H19.5459C19.7477 11.1384 19.9494 11.1384 20.1512 11.1387H20.6605C20.8401 11.1387 21.0198 11.1384 21.1997 11.1381L21.2007 11.1381H21.3725H21.5721L21.6426 11.1387H22.1828H22.1832C22.2742 11.1387 22.3653 11.1387 22.4563 11.1381C22.4886 11.1386 22.5209 11.1399 22.5533 11.1412C22.6224 11.144 22.6915 11.1468 22.7603 11.1422C23.006 11.1251 23.2127 11.2091 23.4119 11.3496C23.5553 11.4508 23.7346 11.8954 23.6983 12.0991C23.6498 12.3708 23.5085 12.5636 23.3025 12.7239C23.2716 12.7172 23.2603 12.7363 23.2489 12.7553C23.2439 12.7637 23.239 12.7721 23.2323 12.7782C22.9965 12.8535 22.7546 12.8537 22.5126 12.8539C22.426 12.8539 22.3393 12.854 22.253 12.8575L22.2329 12.8574L22.2179 12.8572C22.2062 12.857 22.1945 12.8568 22.1828 12.8568C21.8788 12.8568 21.5748 12.8572 21.2709 12.8575H21.2007C21.0208 12.8572 20.8408 12.8568 20.6605 12.8568L20.6393 12.857L20.6253 12.8572C20.6135 12.8573 20.6017 12.8575 20.59 12.8575H19.611H19.4731H19.2396H19.1691H18.1897L18.1729 12.8574L18.1546 12.8572C18.1429 12.857 18.1313 12.8568 18.1196 12.8568C17.8156 12.8568 17.5116 12.8572 17.2076 12.8575C17.1842 12.8575 17.1609 12.8575 17.1375 12.8572H16.5973C16.5856 12.8572 16.5738 12.8573 16.562 12.8575C16.5503 12.8577 16.5385 12.8578 16.5268 12.8578H15.5478H15.4098H15.1763H15.1058H14.1265L14.1128 12.8578L14.0914 12.8575C14.0797 12.8573 14.068 12.8572 14.0563 12.8572C13.7532 12.8572 13.45 12.8575 13.1469 12.8578L13.1444 12.8578C13.121 12.8578 13.0976 12.8578 13.0742 12.8575H12.534L12.5158 12.8576L12.4988 12.8578C12.487 12.858 12.4752 12.8582 12.4636 12.8582H11.4845H11.3466H11.1131H11.0426H10.0632C10.0515 12.8582 10.0398 12.858 10.0281 12.8578C10.0165 12.8577 10.0048 12.8575 9.99307 12.8575C9.69077 12.8575 9.38847 12.8578 9.08617 12.8582L9.08113 12.8582C9.05775 12.8582 9.03436 12.8582 9.01098 12.8578H8.4708C8.4591 12.8578 8.44733 12.858 8.43555 12.8582C8.42378 12.8584 8.412 12.8585 8.40031 12.8585H7.42127H7.28334H7.04985H6.97936H5.99998C5.98829 12.8585 5.97659 12.8584 5.9649 12.8582C5.95321 12.858 5.94152 12.8578 5.92983 12.8578C5.62585 12.8578 5.32187 12.8582 5.01789 12.8585C4.9945 12.8585 4.97112 12.8585 4.94774 12.8582H4.40755C4.39586 12.8582 4.38408 12.8584 4.37231 12.8585C4.36053 12.8587 4.34876 12.8589 4.33706 12.8589H3.35802H3.2201H2.9866H2.91611H1.93673C1.92504 12.8589 1.91335 12.8587 1.90166 12.8585C1.88997 12.8584 1.87828 12.8582 1.86658 12.8582C1.75407 12.8582 1.64165 12.8584 1.52922 12.8585C1.4168 12.8587 1.30437 12.8589 1.19186 12.8589C1.11606 12.8589 1.0401 12.8586 0.964194 12.8583L0.850943 12.8578C0.699846 12.8635 0.5668 12.8057 0.433793 12.748C0.404816 12.7354 0.37584 12.7228 0.34668 12.7109L0.348036 12.7119V12.7129ZM15.0706 23.1C14.7233 22.992 14.4884 22.7702 14.3888 22.4124C14.3918 22.276 14.3949 22.1396 14.3976 22.0036C14.4505 21.8819 14.5111 21.7651 14.5999 21.6653L14.8704 21.4571L15.1045 21.3823H15.5461H16.1202H16.5617C16.7417 21.3823 16.922 21.3823 17.1019 21.3826H17.6113H18.1176C18.2873 21.3826 18.4571 21.3826 18.6269 21.3823H19.1671H19.609H20.1831C20.3495 21.4069 20.506 21.3679 20.6595 21.3085C20.8568 21.2206 20.9984 21.0771 21.0848 20.8775C21.0925 20.8459 21.101 20.8144 21.1096 20.7829L21.1096 20.7827C21.1438 20.6567 21.1779 20.5308 21.1557 20.3963C21.1557 20.2753 21.156 20.1543 21.1563 20.0334L21.1567 19.8532L21.1557 19.3723L21.1564 19.1003L21.157 18.8293L21.1557 18.3484V17.7711L21.1558 17.6557L21.156 17.5307C21.1562 17.4506 21.1563 17.3704 21.1563 17.2903C21.1563 17.1204 21.1563 16.9505 21.1567 16.781L21.1574 16.5233L21.158 16.2667C21.1408 15.9909 21.2682 15.7861 21.4624 15.6067C21.4983 15.5734 21.5405 15.5523 21.5824 15.5313C21.6274 15.5088 21.6721 15.4865 21.7081 15.4495L22.0034 15.4184L22.0815 15.4102C22.2984 15.4666 22.501 15.5493 22.6559 15.7215L22.6915 15.7502C22.7745 15.914 22.8243 16.0886 22.8613 16.2677V16.7807V17.292V17.805V18.3163C22.8613 18.4302 22.8616 18.5444 22.8619 18.6584L22.8623 18.8293V19.3402V19.8532V20.3645L22.861 20.3895C22.8523 20.552 22.8436 20.7143 22.8352 20.8768C22.7905 20.9592 22.7788 21.0492 22.767 21.1396C22.7588 21.2021 22.7506 21.2648 22.7315 21.3252C22.6826 21.4791 22.6089 21.62 22.5352 21.7608C22.4939 21.8398 22.4525 21.9187 22.4157 21.9999L22.0808 22.3782L21.6477 22.723L21.4546 22.8228L21.2614 22.9226C21.2495 22.9182 21.2404 22.9213 21.2336 22.9319L20.5589 23.0997L20.3717 23.1003L20.1844 23.101H19.6104H19.1684H18.6283H18.1528C17.9729 23.101 17.7926 23.101 17.6126 23.1007H17.1033C16.9233 23.1007 16.743 23.1007 16.5631 23.101H16.1215C15.9392 23.101 15.7572 23.101 15.5749 23.1007C15.4071 23.1007 15.2397 23.1007 15.072 23.101L15.0706 23.1ZM0.846231 20.3969C0.84657 20.5565 0.846909 20.7165 0.846909 20.8761L0.846231 20.8764C0.90452 21.2432 1.04956 21.5771 1.22477 21.8997C1.24004 21.9266 1.26105 21.9496 1.28207 21.9726C1.31609 22.0098 1.35014 22.0471 1.35998 22.101L1.5989 22.3724L1.90085 22.6167C2.19805 22.8324 2.52711 22.9773 2.88158 23.0662L3.11035 23.0826L3.35704 23.1003H3.93111H4.37268C4.55263 23.1 4.73292 23.1 4.91286 23.1H5.42221H5.92851C6.09829 23.1003 6.26807 23.1003 6.43785 23.1003H6.97804H7.42435C7.46488 23.0982 7.50557 23.0974 7.54629 23.0967C7.66149 23.0945 7.77688 23.0923 7.8893 23.059C7.97673 23.0125 8.06383 22.966 8.15092 22.9195C8.17354 22.8869 8.19692 22.8549 8.22025 22.8231L8.22026 22.8231C8.31578 22.6926 8.41034 22.5635 8.44711 22.3905C8.5359 21.9728 8.2004 21.4657 7.78188 21.4212C7.70145 21.4128 7.62102 21.4041 7.54059 21.3953L7.41994 21.3823H6.97804H6.43785C6.26807 21.3826 6.09829 21.3826 5.92851 21.3826H5.42221H4.91286C4.73292 21.3823 4.55263 21.3823 4.37268 21.3823H3.93111C3.83555 21.3823 3.7399 21.3821 3.64424 21.3819C3.54859 21.3817 3.45294 21.3816 3.35738 21.3816C3.15405 21.4041 2.99138 21.3214 2.85074 21.182C2.75755 21.1123 2.66978 21.0381 2.64233 20.9157C2.53384 20.7893 2.5403 20.6419 2.54677 20.4946C2.5482 20.462 2.54963 20.4293 2.54981 20.3969V19.8183V19.373V18.8282V18.3487V17.7701C2.54947 17.6103 2.54947 17.4508 2.54947 17.2909V17.2906C2.54981 17.1089 2.54981 16.9275 2.54981 16.7462V16.7458V16.3688C2.56506 16.1607 2.49085 15.9751 2.40748 15.7919C2.40034 15.7838 2.39305 15.7759 2.38582 15.768L2.37461 15.7557C2.2238 15.5927 2.04081 15.4833 1.82968 15.4204C1.68294 15.3999 1.53993 15.4245 1.39726 15.456C1.37997 15.4655 1.36237 15.4747 1.34475 15.4838L1.34466 15.4838L1.34465 15.4839L1.34465 15.4839C1.30496 15.5045 1.26519 15.5251 1.22883 15.5506C1.09464 15.645 0.965181 15.754 0.897403 15.9033C0.84873 16.0104 0.847254 16.1351 0.845818 16.2563L0.845215 16.3001L0.845479 16.4487V16.4487V16.4487C0.845629 16.5476 0.84578 16.6466 0.846231 16.7455V17.2902C0.845893 17.4502 0.845893 17.6098 0.845893 17.7698V18.3487V18.8282V19.373C0.846231 19.5326 0.84657 19.6925 0.84657 19.8522C0.846231 20.0336 0.846231 20.2155 0.846231 20.3969Z" fill="#020202"/>
</g>
<defs>
<clipPath id="clip0_2100_695">
<rect width="24" height="24" fill="white"/>
</clipPath>
</defs>
</svg>
